<svg xmlns="http://www.w3.org/2000/svg" version="1.1" xmlns:xlink="http://www.w3.org/1999/xlink" width="24" height="24"><svg xmlns="http://www.w3.org/2000/svg" version="1.1" xmlns:xlink="http://www.w3.org/1999/xlink" width="24" height="24"><svg width="24" height="24" viewBox="0 0 24 24" fill="none" xmlns="http://www.w3.org/2000/svg">
<g clip-path="url(#clip0_1048_7380)">
<path fill-rule="evenodd" clip-rule="evenodd" d="M22.54 8.34002C21.86 8.41002 22.54 9.22002 22.48 14.34C22.4389 16.3876 22.2786 18.4311 22 20.46C21.85 21.46 21.73 21.32 21.37 21.46C17.73 22.84 2.56999 23.39 1.69999 21.72C1.29999 20.98 0.699991 14.72 0.959991 11.92C1.04999 10.86 1.08999 9.80002 1.15999 8.75002C4.6873 9.0418 8.23268 9.0418 11.76 8.75002C11.8414 8.7361 11.9153 8.69384 11.9686 8.6307C12.0218 8.56756 12.051 8.48762 12.051 8.40501C12.051 8.32241 12.0218 8.24247 11.9686 8.17933C11.9153 8.11619 11.8414 8.07393 11.76 8.06002C10.45 8.00002 9.19999 7.92002 7.99999 7.87002C2.99999 7.66002 1.13999 8.31002 1.15999 8.04002C1.32999 5.50002 1.67999 4.13002 1.47999 3.95002C1.42391 3.89505 1.34852 3.86426 1.26999 3.86426C1.19147 3.86426 1.11607 3.89505 1.05999 3.95002C0.669991 4.40002 0.739991 5.82002 0.659991 6.32002C0.579991 6.82002 0.519991 7.43002 0.469991 8.00002C0.0217057 11.3134 -0.0988773 14.663 0.109991 18C0.145871 19.4239 0.340407 20.8393 0.689991 22.22C1.11817 22.8186 1.7648 23.2245 2.48999 23.35C7.06999 24.62 21.58 23.56 22.59 21.75C22.9527 20.6015 23.1381 19.4044 23.14 18.2C23.3831 15.017 23.306 11.8176 22.91 8.65001C22.8977 8.56169 22.853 8.48109 22.7846 8.42382C22.7163 8.36654 22.6291 8.33668 22.54 8.34002Z" fill="black"></path>
<path fill-rule="evenodd" clip-rule="evenodd" d="M3.28997 3.89C6.71786 4.01355 10.15 3.94344 13.57 3.68C13.6495 3.68 13.7258 3.6484 13.7821 3.59213C13.8384 3.53587 13.87 3.45957 13.87 3.38C13.87 3.30044 13.8384 3.22413 13.7821 3.16787C13.7258 3.11161 13.6495 3.08 13.57 3.08C8.67997 2.5 7.76997 2.85 3.24997 3.21C3.1598 3.21531 3.07542 3.25622 3.01541 3.32373C2.9554 3.39124 2.92467 3.47983 2.92997 3.57C2.93527 3.66018 2.97618 3.74455 3.0437 3.80456C3.11121 3.86457 3.1998 3.89531 3.28997 3.89Z" fill="black"></path>
<path fill-rule="evenodd" clip-rule="evenodd" d="M3.57999 12.71C6.18273 12.6437 8.77832 12.4065 11.35 12C11.4314 11.9861 11.5053 11.9438 11.5586 11.8807C11.6118 11.8176 11.641 11.7376 11.641 11.655C11.641 11.5724 11.6118 11.4925 11.5586 11.4293C11.5053 11.3662 11.4314 11.3239 11.35 11.31C6.58998 10.98 5.92999 11.75 3.54999 12.12C2.88999 12.12 2.59999 12.35 2.75999 12.52C2.74999 12.67 3.04999 12.8 3.57999 12.71Z" fill="black"></path>
<path fill-rule="evenodd" clip-rule="evenodd" d="M19 16.15C19.0805 16.1871 19.1724 16.1913 19.256 16.1616C19.3395 16.132 19.4082 16.0708 19.4473 15.9912C19.4865 15.9117 19.493 15.82 19.4654 15.7357C19.4379 15.6514 19.3786 15.5812 19.3 15.54C18.8923 15.3494 18.4499 15.2439 18 15.23C11.75 14.6 11 14.84 4.23001 15.43L3.39001 15.62C3.31183 15.6085 3.23227 15.6283 3.16861 15.6751C3.10495 15.7219 3.06233 15.792 3.05 15.87C2.96 16.48 4.05001 16.13 4.30001 16.11C13.06 16.21 18.14 15.75 19 16.15Z" fill="black"></path>
<path fill-rule="evenodd" clip-rule="evenodd" d="M17 18.24C15.5792 18.1765 14.1557 18.2133 12.74 18.35C10 18.66 7.12001 19.5 5.00001 19.42C4.92045 19.42 4.84414 19.4516 4.78788 19.5079C4.73162 19.5641 4.70001 19.6405 4.70001 19.72C4.70001 19.7996 4.73162 19.8759 4.78788 19.9322C4.84414 19.9884 4.92045 20.02 5.00001 20.02C6.27953 20.16 7.5705 20.16 8.85001 20.02C13.14 19.62 10.85 19.36 17.08 18.97C17.29 18.97 17.85 19.03 18.08 18.79C18.1441 18.7246 18.1801 18.6366 18.1801 18.545C18.1801 18.4534 18.1441 18.3654 18.08 18.3C17.79 18.13 17.07 18.24 17 18.24Z" fill="black"></path>
<path fill-rule="evenodd" clip-rule="evenodd" d="M3.28997 6.43001C3.36114 6.51957 3.45161 6.59191 3.55463 6.64163C3.65765 6.69135 3.77057 6.71718 3.88497 6.71718C3.99936 6.71718 4.11228 6.69135 4.2153 6.64163C4.31833 6.59191 4.4088 6.51957 4.47997 6.43001C4.57206 6.25015 4.60238 6.04496 4.56623 5.84615C4.53008 5.64733 4.42948 5.46595 4.27997 5.33001C3.53997 4.86001 2.61997 5.69001 3.28997 6.43001Z" fill="black"></path>
<path fill-rule="evenodd" clip-rule="evenodd" d="M5.85 6.13C5.92216 6.21971 6.01352 6.29211 6.11736 6.34184C6.2212 6.39158 6.33487 6.4174 6.45 6.4174C6.56514 6.4174 6.67881 6.39158 6.78264 6.34184C6.88648 6.29211 6.97784 6.21971 7.05 6.13C7.14964 5.94685 7.18412 5.7353 7.14778 5.52999C7.11144 5.32469 7.00645 5.13782 6.85 5C6.1 4.56 5.18 5.39 5.85 6.13Z" fill="black"></path>
<path fill-rule="evenodd" clip-rule="evenodd" d="M9.63996 5.00001C8.89996 4.57001 7.97996 5.40001 8.63996 6.14001C8.71113 6.22957 8.8016 6.30191 8.90463 6.35163C9.00765 6.40135 9.12057 6.42717 9.23496 6.42717C9.34936 6.42717 9.46228 6.40135 9.5653 6.35163C9.66832 6.30191 9.75879 6.22957 9.82996 6.14001C9.93522 5.95739 9.97382 5.74389 9.93917 5.53598C9.90452 5.32806 9.79876 5.13862 9.63996 5.00001Z" fill="black"></path>
<path fill-rule="evenodd" clip-rule="evenodd" d="M20.54 0.360011C20.2721 0.531959 20.0298 0.740663 19.82 0.980011C19.7913 1.00797 19.7684 1.04139 19.7528 1.07832C19.7372 1.11525 19.7292 1.15493 19.7292 1.19501C19.7292 1.2351 19.7372 1.27477 19.7528 1.3117C19.7684 1.34863 19.7913 1.38206 19.82 1.41001C20.08 1.72001 20.31 1.32001 20.82 1.10001C21.69 0.720011 22.98 1.79001 23 2.33001C23.0401 2.89783 22.8692 3.46048 22.52 3.91001C21.85 3.37001 20.19 2.17001 19.76 1.81001C19.6924 1.74901 19.6033 1.71738 19.5123 1.72206C19.4213 1.72675 19.336 1.76738 19.275 1.83501C19.214 1.90264 19.1823 1.99173 19.187 2.08269C19.1917 2.17364 19.2324 2.25901 19.3 2.32001C19.71 2.70001 21.3 3.93001 21.93 4.52001C21.6 5.00001 21.81 4.68001 18 9.00001C17.7688 8.54363 17.449 8.13789 17.0593 7.80651C16.6695 7.47513 16.2176 7.22476 15.73 7.07001C18.64 3.07001 19.18 2.94001 18.73 2.62001C18.6988 2.59335 18.6623 2.57361 18.6229 2.5621C18.5835 2.55059 18.5421 2.54757 18.5015 2.55324C18.4608 2.55891 18.4219 2.57314 18.3871 2.595C18.3524 2.61685 18.3227 2.64583 18.3 2.68001C15.61 5.82001 14 7.60001 14 8.12001C13.86 10.33 13.76 11.4 14.09 11.71C14.74 12.34 17.17 11.48 17.67 11.12C18.17 10.76 22.28 5.61001 22.77 4.88001C23.4188 4.16351 23.8461 3.2743 24 2.32001C23.9644 1.93084 23.8351 1.55607 23.6231 1.22775C23.4112 0.899425 23.1228 0.627322 22.7828 0.434703C22.4428 0.242084 22.0612 0.134679 21.6706 0.121672C21.28 0.108664 20.8921 0.190442 20.54 0.360011ZM17 10.17C16.3743 10.4948 15.698 10.7112 15 10.81C14.88 7.81001 14.91 8.33001 15.36 7.67001C16.023 8.37964 16.7568 9.01963 17.55 9.58001C17.3777 9.78668 17.1941 9.98365 17 10.17Z" fill="black"></path>
</g>
<defs>
<clipPath id="clip0_1048_7380">
<rect width="24" height="24" fill="white"></rect>
</clipPath>
</defs>
</svg></svg><style>@media (prefers-color-scheme: light) { :root { filter: none; } }
@media (prefers-color-scheme: dark) { :root { filter: none; } }
</style></svg>